<svg width="1280" height="800" viewBox="0 0 1280 800" fill="none" xmlns="http://www.w3.org/2000/svg">
  <rect width="1280" height="800" rx="24" fill="#2E2A28"/>
  <rect x="2" y="2" width="1276" height="796" rx="22" stroke="#4A433D" stroke-width="4"/>

  <text x="640" y="34" text-anchor="middle" fill="#E7D7B3" font-family="Cantarell, sans-serif" font-size="20" font-weight="700">AppAlchemist</text>
  <text x="640" y="58" text-anchor="middle" fill="#9E8E72" font-family="Cantarell, sans-serif" font-size="14" font-weight="600">Fast package conversion</text>

  <rect x="972" y="14" width="24" height="24" rx="6" fill="#3A3632" stroke="#5B5247" stroke-width="2"/>
  <rect x="979" y="21" width="10" height="10" rx="1" stroke="#E0C26C" stroke-width="2"/>
  <rect x="1008" y="10" width="135" height="36" rx="14" fill="#3A3632" stroke="#5B5247" stroke-width="2"/>
  <text x="1076" y="34" text-anchor="middle" fill="#E7D7B3" font-family="Cantarell, sans-serif" font-size="16" font-weight="700">Advanced</text>
  <circle cx="1172" cy="28" r="17" fill="#3A3632" stroke="#5B5247" stroke-width="2"/>
  <rect x="1166" y="27" width="12" height="2" rx="1" fill="#C7B286"/>
  <circle cx="1213" cy="28" r="17" fill="#3A3632" stroke="#5B5247" stroke-width="2"/>
  <rect x="1207" y="22" width="12" height="12" stroke="#C7B286" stroke-width="2"/>
  <circle cx="1253" cy="28" r="17" fill="#3A3632" stroke="#5B5247" stroke-width="2"/>
  <path d="M1247 22L1259 34M1259 22L1247 34" stroke="#C7B286" stroke-width="2" stroke-linecap="round"/>

  <rect x="138" y="84" width="1004" height="286" rx="24" fill="#4A433D" stroke="#71624B" stroke-width="2"/>
  <defs>
    <linearGradient id="hero" x1="138" y1="84" x2="1142" y2="370" gradientUnits="userSpaceOnUse">
      <stop stop-color="#6F5B2A"/>
      <stop offset="1" stop-color="#4A433D"/>
    </linearGradient>
  </defs>
  <rect x="138" y="84" width="1004" height="286" rx="24" fill="url(#hero)" opacity="0.38"/>
  <rect x="636" y="124" width="10" height="10" rx="2" stroke="#FFBA08" stroke-width="3"/>
  <text x="164" y="182" fill="#E7D7B3" font-family="Cantarell, sans-serif" font-size="18" font-weight="700">No package selected</text>

  <rect x="164" y="220" width="176" height="56" rx="12" fill="#FDBB2D"/>
  <text x="252" y="253" text-anchor="middle" fill="#2E2A28" font-family="Cantarell, sans-serif" font-size="17" font-weight="800">Choose Packages</text>
  <rect x="352" y="220" width="155" height="56" rx="12" fill="#544B42" stroke="#6C6257" stroke-width="2"/>
  <text x="430" y="253" text-anchor="middle" fill="#E7D7B3" opacity="0.9" font-family="Cantarell, sans-serif" font-size="17" font-weight="700">Clear Selection</text>

  <rect x="164" y="296" width="952" height="66" rx="14" fill="#B7922B"/>
  <text x="640" y="336" text-anchor="middle" fill="#2D2B35" font-family="Cantarell, sans-serif" font-size="20" font-weight="800">Convert Package</text>

  <rect x="138" y="392" width="1004" height="136" rx="22" fill="#47423E" stroke="#5D554D" stroke-width="2"/>
  <text x="160" y="448" fill="#E7D7B3" font-family="Cantarell, sans-serif" font-size="18" font-weight="700">Ready</text>
  <text x="160" y="494" fill="#A89673" font-family="Cantarell, sans-serif" font-size="16" font-weight="500">Choose a local package, then start conversion.</text>
  <rect x="984" y="412" width="134" height="54" rx="14" fill="#4B453F" stroke="#62594F" stroke-width="2"/>
  <text x="1051" y="445" text-anchor="middle" fill="#E7D7B3" font-family="Cantarell, sans-serif" font-size="16" font-weight="700">Open Folder</text>
  <rect x="160" y="516" width="942" height="6" rx="3" fill="#5A524A"/>

  <rect x="138" y="568" width="1004" height="96" rx="22" fill="#47423E" stroke="#5D554D" stroke-width="2"/>
  <text x="160" y="620" fill="#E7D7B3" font-family="Cantarell, sans-serif" font-size="18" font-weight="700">Activity</text>
  <text x="160" y="652" fill="#A89673" font-family="Cantarell, sans-serif" font-size="16" font-weight="500">Keep this collapsed unless you need pipeline detail.</text>
  <rect x="997" y="587" width="121" height="44" rx="12" fill="#4B453F" stroke="#62594F" stroke-width="2"/>
  <text x="1057" y="615" text-anchor="middle" fill="#E7D7B3" font-family="Cantarell, sans-serif" font-size="16" font-weight="700">Show Log</text>
</svg>
